<?xml version="1.0" encoding="utf-8"?>
<!-- Generator: Adobe Illustrator 16.0.4, SVG Export Plug-In . SVG Version: 6.00 Build 0)  -->
<!DOCTYPE svg PUBLIC "-//W3C//DTD SVG 1.1//EN" "http://www.w3.org/Graphics/SVG/1.1/DTD/svg11.dtd">
<svg version="1.1" id="Capa_1" xmlns="http://www.w3.org/2000/svg" xmlns:xlink="http://www.w3.org/1999/xlink" x="0px" y="0px"
	 width="540px" height="102.225px" viewBox="0 0 540 102.225" enable-background="new 0 0 540 102.225" xml:space="preserve">
<path fill="#FFB81C" d="M97.191,0.665c-5.699-2.073-12,0.862-14.077,6.561l-21.22,58.301c-2.077,5.702,0.866,12.002,6.565,14.078
	c5.703,2.077,12.006-0.861,14.078-6.561l21.222-58.303C105.834,9.043,102.89,2.738,97.191,0.665"/>
<path fill="#FFB81C" d="M58.591,22.634c-5.696-2.08-12.003,0.865-14.074,6.564L23.294,87.499c-2.074,5.702,0.866,12,6.569,14.072
	c5.702,2.076,12.002-0.859,14.074-6.559l21.222-58.299C67.234,31.014,64.293,24.71,58.591,22.634"/>
<path fill="#FFB81C" d="M35.963,0.665C30.262-1.408,23.96,1.527,21.887,7.226L0.664,65.526c-2.071,5.702,0.866,12.002,6.565,14.078
	c5.703,2.077,12.003-0.861,14.081-6.561l21.219-58.303C44.604,9.043,41.663,2.738,35.963,0.665"/>
<path fill="#1D1816" d="M148.634,63.606c-6.071,9.783-15.526,13.141-22.374,13.141c-9.533,0-17.682-5.59-14.473-17.055l4.252-15.19
	c3.215-11.461,14.521-17.144,24.051-17.144c6.85,0,14.758,3.165,14.487,13.046l-11.976,3.445
	c-0.122-7.174-11.871-5.867-13.669,0.564l-4.25,15.186c-1.86,6.619,8.83,8.11,13.708,0.281L148.634,63.606z"/>
<path fill="#1D1816" d="M182.094,10.208l-5.351,19.107c12.452-4.473,25.136,1.12,21.011,15.843l-8.69,31.034h-12.771l8.718-31.128
	c1.696-6.058-6.872-6.523-11.5-4.193l-9.899,35.321h-12.863l18.482-65.984H182.094z"/>
<path fill="#1D1816" d="M214.501,16.078c-1.229,4.379,1.137,7.828,5.396,7.828c4.625,0,8.741-3.449,9.964-7.828
	c1.232-4.383-0.979-7.732-5.604-7.732C219.998,8.346,215.73,11.695,214.501,16.078 M225.462,27.823l-13.547,48.368h-12.86
	l13.547-48.368H225.462z"/>
<path fill="#1D1816" d="M242.042,76.001c-14.666,2.144-18.535-7.178-15.586-17.705l13.47-48.088h12.863l-13.467,48.088
	c-1.021,3.632,0.547,6.617,5.827,6.617L242.042,76.001z"/>
<path fill="#1D1816" d="M281.822,43.667c1.88-6.712-11.447-6.712-13.173,0.089l-1.194,4.287h13.14L281.822,43.667z M285.003,67.985
	c-5.634,6.897-13.664,9.133-19.313,9.133c-9.619,0-17.746-5.684-14.532-17.148l4.407-15.744
	c3.262-11.65,14.495-17.055,24.117-17.055c9.352,0,17.371,5.405,14.106,17.055l-3.758,13.419h-25.265l-0.652,2.324
	c-1.878,6.711,9.387,7.459,14.14,2.055L285.003,67.985z"/>
<path fill="#1D1816" d="M346.844,27.913l-22.654,24.049c2.888,6.895,6.583,17.798,9.312,24.229h-15.264l-3.382-10.069l-0.471-4.938
	h-0.65l-3.561,5.123c-2.274,2.516-4.726,5.316-8.964,9.884h-14.535l22.31-24.14c-1.533-4.102-2.421-8.202-8.786-24.139h14.526
	l3.586,10.997l0.477,4.567h0.56l2.949-4.567c1.866-2.048,5.116-6.054,9.464-10.997H346.844z"/>
<path fill="#1D1816" d="M353.507,65.563c3.513,2.332,11.863,0.932,14.074-4.659l5.194-18.543c1.434-5.779-6.346-7.081-11.414-4.849
	L353.507,65.563z M332.615,93.894l17.75-63.37c6.458-2.235,13.696-3.632,19.707-3.632c10.092,0,17.798,4.193,15.229,16.675
	l-4.669,16.684c-3.575,13.422-20.663,19.572-29.764,14.727l-5.295,18.916H332.615z"/>
<path fill="#1D1816" d="M412.613,27.636h0.098c1.212-0.374,3.271-0.464,4.664-0.464c1.849,0,3.83,0.187,6.521,0.835l-2.955,10.534
	c-5.041-1.495-12.249,0.465-14.342,5.962l-8.884,31.688h-12.856l8.925-31.874c1.955-6.985,7.425-12.305,13.366-15.002
	C408.72,28.66,410.753,28.007,412.613,27.636"/>
<path fill="#1D1816" d="M449.856,43.667c1.877-6.712-11.443-6.712-13.164,0.089l-1.201,4.287h13.142L449.856,43.667z
	 M453.044,67.985c-5.641,6.897-13.663,9.133-19.31,9.133c-9.628,0-17.75-5.684-14.541-17.148l4.413-15.744
	c3.263-11.65,14.488-17.055,24.119-17.055c9.342,0,17.356,5.405,14.095,17.055l-3.756,13.419H432.8l-0.654,2.324
	c-1.875,6.711,9.396,7.459,14.148,2.055L453.044,67.985z"/>
<path fill="#1D1816" d="M468.627,60.534c4.14,5.402,11.791,7.175,14.547,3.256c1.988-2.792,1.265-5.494-2.904-6.145
	c-21.577-3.92-11.023-30.01,9.13-30.287c4.378-0.097,10.083,1.024,13.86,5.027l-8.86,8.855c-2.089-2.797-10.059-5.406-12.383,0.932
	c-1.09,2.891,3.071,4.568,5.002,4.939c5.658,1.587,12.381,5.031,9.822,14.167c-2.953,10.529-12.774,15.84-21.753,15.84
	c-6.66,0-12.071-2.141-14.916-8.199L468.627,60.534z"/>
<path fill="#1D1816" d="M505.367,60.534c4.128,5.402,11.785,7.175,14.547,3.256c1.979-2.792,1.253-5.494-2.91-6.145
	c-21.571-3.92-11.033-30.01,9.136-30.287c4.375-0.097,10.074,1.024,13.86,5.027l-8.872,8.855c-2.083-2.797-10.05-5.406-12.386,0.932
	c-1.084,2.891,3.07,4.568,5.006,4.939c5.669,1.587,12.377,5.031,9.824,14.167c-2.95,10.529-12.769,15.84-21.744,15.84
	c-6.663,0-12.08-2.141-14.916-8.199L505.367,60.534z"/>
</svg>
