<?xml version="1.0" encoding="utf-8"?>
<!-- Generator: Adobe Illustrator 15.0.0, SVG Export Plug-In . SVG Version: 6.00 Build 0)  -->
<!DOCTYPE svg PUBLIC "-//W3C//DTD SVG 1.1//EN" "http://www.w3.org/Graphics/SVG/1.1/DTD/svg11.dtd">
<svg version="1.1" id="Capa_1" xmlns="http://www.w3.org/2000/svg" xmlns:xlink="http://www.w3.org/1999/xlink" x="0px" y="0px"
	 width="540px" height="102.225px" viewBox="0 0 540 102.225" enable-background="new 0 0 540 102.225" xml:space="preserve">
<path fill="#1D1816" d="M97.191,0.665c-5.699-2.073-12,0.861-14.077,6.561l-21.22,58.301c-2.077,5.702,0.866,12.002,6.565,14.078
	c5.703,2.077,12.006-0.86,14.078-6.561l21.222-58.303C105.834,9.043,102.89,2.738,97.191,0.665"/>
<path fill="#1D1816" d="M58.591,22.634c-5.696-2.08-12.003,0.865-14.074,6.564L23.294,87.499c-2.074,5.702,0.866,12,6.569,14.071
	c5.702,2.076,12.002-0.858,14.074-6.559l21.222-58.299C67.234,31.014,64.293,24.71,58.591,22.634"/>
<path fill="#1D1816" d="M35.963,0.665C30.262-1.408,23.96,1.527,21.887,7.226l-21.223,58.3c-2.071,5.702,0.866,12.002,6.565,14.078
	c5.703,2.077,12.003-0.86,14.081-6.561L42.529,14.74C44.604,9.043,41.663,2.738,35.963,0.665"/>
<path fill="#1D1816" d="M148.634,63.606c-6.071,9.783-15.526,13.142-22.374,13.142c-9.533,0-17.682-5.59-14.473-17.056l4.252-15.189
	c3.215-11.461,14.521-17.145,24.051-17.145c6.85,0,14.758,3.165,14.487,13.046l-11.976,3.445
	c-0.122-7.174-11.871-5.867-13.669,0.564l-4.25,15.186c-1.86,6.619,8.83,8.11,13.708,0.281L148.634,63.606z"/>
<path fill="#1D1816" d="M182.094,10.208l-5.351,19.106c12.452-4.473,25.136,1.12,21.011,15.844l-8.69,31.033h-12.771l8.718-31.128
	c1.696-6.058-6.872-6.522-11.5-4.192l-9.899,35.32h-12.863l18.482-65.983H182.094z"/>
<path fill="#1D1816" d="M214.501,16.078c-1.229,4.379,1.137,7.828,5.396,7.828c4.625,0,8.741-3.449,9.964-7.828
	c1.232-4.384-0.979-7.732-5.604-7.732C219.998,8.346,215.73,11.695,214.501,16.078 M225.462,27.823l-13.547,48.367h-12.86
	l13.547-48.367H225.462z"/>
<path fill="#1D1816" d="M242.042,76.001c-14.666,2.144-18.535-7.178-15.586-17.705l13.47-48.088h12.863l-13.467,48.088
	c-1.021,3.632,0.547,6.617,5.827,6.617L242.042,76.001z"/>
<path fill="#1D1816" d="M281.822,43.667c1.88-6.712-11.447-6.712-13.173,0.089l-1.194,4.287h13.141L281.822,43.667z M285.003,67.985
	c-5.634,6.897-13.664,9.134-19.313,9.134c-9.619,0-17.746-5.685-14.532-17.148l4.407-15.744
	c3.262-11.649,14.495-17.055,24.117-17.055c9.353,0,17.371,5.405,14.106,17.055l-3.759,13.419h-25.264l-0.652,2.324
	c-1.878,6.711,9.387,7.459,14.14,2.055L285.003,67.985z"/>
<path fill="#1D1816" d="M346.844,27.913L324.19,51.962c2.888,6.895,6.583,17.798,9.312,24.229h-15.264l-3.382-10.068l-0.472-4.938
	h-0.649l-3.562,5.123c-2.273,2.517-4.726,5.316-8.964,9.884h-14.535l22.311-24.14c-1.533-4.102-2.421-8.202-8.786-24.139h14.525
	l3.586,10.997l0.478,4.566h0.56l2.949-4.566c1.866-2.049,5.116-6.055,9.464-10.997L346.844,27.913L346.844,27.913z"/>
<path fill="#1D1816" d="M353.507,65.563c3.513,2.332,11.863,0.933,14.074-4.659l5.194-18.543c1.434-5.778-6.347-7.08-11.414-4.849
	L353.507,65.563z M332.615,93.894l17.75-63.37c6.458-2.234,13.695-3.632,19.707-3.632c10.092,0,17.798,4.193,15.229,16.675
	l-4.669,16.685c-3.575,13.422-20.663,19.572-29.764,14.727l-5.295,18.916H332.615z"/>
<path fill="#1D1816" d="M412.613,27.636h0.098c1.212-0.374,3.271-0.464,4.664-0.464c1.849,0,3.83,0.187,6.521,0.835l-2.955,10.534
	c-5.041-1.495-12.249,0.465-14.343,5.962l-8.884,31.688h-12.855l8.925-31.874c1.955-6.984,7.425-12.305,13.366-15.002
	C408.72,28.66,410.753,28.007,412.613,27.636"/>
<path fill="#1D1816" d="M449.856,43.667c1.877-6.712-11.443-6.712-13.164,0.089l-1.201,4.287h13.142L449.856,43.667z
	 M453.044,67.985c-5.641,6.897-13.663,9.134-19.31,9.134c-9.628,0-17.75-5.685-14.541-17.148l4.413-15.744
	c3.263-11.649,14.487-17.055,24.118-17.055c9.343,0,17.356,5.405,14.096,17.055l-3.756,13.419H432.8l-0.653,2.324
	c-1.875,6.711,9.396,7.459,14.147,2.055L453.044,67.985z"/>
<path fill="#1D1816" d="M468.627,60.534c4.14,5.401,11.791,7.175,14.547,3.256c1.988-2.792,1.266-5.494-2.904-6.146
	c-21.576-3.92-11.022-30.01,9.131-30.287c4.378-0.097,10.083,1.024,13.859,5.027L494.4,41.24c-2.09-2.798-10.06-5.406-12.384,0.932
	c-1.09,2.891,3.071,4.568,5.003,4.938c5.657,1.588,12.381,5.031,9.821,14.167c-2.953,10.529-12.773,15.841-21.753,15.841
	c-6.66,0-12.071-2.142-14.916-8.199L468.627,60.534z"/>
<path fill="#1D1816" d="M505.367,60.534c4.128,5.401,11.785,7.175,14.547,3.256c1.979-2.792,1.253-5.494-2.91-6.146
	c-21.571-3.92-11.033-30.01,9.136-30.287c4.375-0.097,10.074,1.024,13.86,5.027l-8.872,8.855c-2.083-2.798-10.05-5.406-12.386,0.932
	c-1.084,2.891,3.07,4.568,5.006,4.938c5.669,1.588,12.377,5.031,9.824,14.167c-2.95,10.529-12.77,15.841-21.744,15.841
	c-6.663,0-12.08-2.142-14.916-8.199L505.367,60.534z"/>
</svg>
